<?xml version="1.0" encoding="UTF-8"?>
<svg width="77px" height="65px" viewBox="0 0 77 65" version="1.1" xmlns="http://www.w3.org/2000/svg" xmlns:xlink="http://www.w3.org/1999/xlink">
    <title>Button / Back</title>
    <g id="Home-Buyers" stroke="none" stroke-width="1" fill="none" fill-rule="evenodd">
        <g id="2.-Add-Spouse" transform="translate(-199.000000, -195.000000)">
            <g id="Group" transform="translate(200.000000, 195.000000)">
                <g transform="translate(38.000000, 32.000000) scale(-1, 1) translate(-38.000000, -32.000000) translate(0.000000, 0.000000)" id="Path" stroke="#A0A0A0" stroke-linecap="round" stroke-linejoin="round">
                    <polyline fill="#A0A0A0" points="15.1185714 35.2159184 59.2218367 35.2159184 59.2218367 42.8585714 75.8255102 21.4312245 59.2218367 -1.42108547e-14 59.2218367 7.30142857 15.1185714 7.30142857"></polyline>
                    <path d="M15.122449,58.8340816 L15.122449,6.37081633 C15.111793,5.08126594 14.0622456,4.04211013 12.7726531,4.0442823 L10.0855102,4.0442823 C8.79742904,4.0442823 7.75023713,5.08277915 7.73959184,6.37081633 L7.73959184,58.934898"></path>
                    <path d="M0,63.7004082 C2.87153539,60.4268257 6.98911776,58.5141629 11.3428779,58.4315152 C15.696638,58.3488676 19.883844,60.1038801 22.877551,63.2661224"></path>
                </g>
                <text id="Back" font-family="Avenir-Book, Avenir" font-size="16" font-weight="normal" fill="#FFFFFF">
                    <tspan x="11" y="27">Back</tspan>
                </text>
            </g>
        </g>
    </g>
</svg>